HIERARCHY
ROOT Hips
{
	OFFSET 0.000000 0.000000 0.000000 
	CHANNELS 6 Xposition Yposition Zposition Yrotation Zrotation Xrotation 
	JOINT Lumbar
	{
		OFFSET 0.000000 0.000000 0.000000 
		CHANNELS 3 Zrotation Xrotation Yrotation
		JOINT Neck
		{
			OFFSET 0.000000 0.445665 0.000000 
			CHANNELS 3 Zrotation Xrotation Yrotation
			End Site
			{
				OFFSET 0.000000 0.227535 0.000000 
			}
		}
		JOINT RightShoulder
		{
			OFFSET 0.019635 0.377685 0.194865 
			CHANNELS 3 Zrotation Xrotation Yrotation
			JOINT RightElbow
			{
				OFFSET 0.000000 -0.243375 0.000000 
				CHANNELS 2 Zrotation Yrotation
				JOINT RightWrist
				{
					OFFSET 0.000000 -0.264825 0.000000 
					CHANNELS 2 Zrotation Xrotation
					End Site
					{
						OFFSET 0.006600 -0.176220 0.000990 
					}
				}
			}
		}
		JOINT LeftShoulder
		{
			OFFSET 0.019635 0.377685 -0.194865 
			CHANNELS 3 Zrotation Xrotation Yrotation
			JOINT LeftElbow
			{
				OFFSET 0.000000 -0.243375 0.000000 
				CHANNELS 2 Zrotation Yrotation
				JOINT LeftWrist
				{
					OFFSET 0.000000 -0.264825 0.000000 
					CHANNELS 2 Zrotation Xrotation
					End Site
					{
						OFFSET 0.006600 -0.176220 -0.000990 
					}
				}
			}
		}
	}
	JOINT RightHip
	{
		OFFSET 0.052140 -0.069960 0.075570 
		CHANNELS 3 Zrotation Xrotation Yrotation
		JOINT RightKnee
		{
			OFFSET 0.000000 -0.402270 0.000000 
			CHANNELS 1 Zrotation
			JOINT RightAnkle
			{
				OFFSET 0.000000 -0.404085 0.000000 
				CHANNELS 3 Zrotation Xrotation Yrotation
				End Site
				{
					OFFSET 0.204105 -0.089430 0.008415 
				}
			}
		}
	}
	JOINT LeftHip
	{
		OFFSET 0.052140 -0.069960 -0.075570 
		CHANNELS 3 Zrotation Xrotation Yrotation
		JOINT LeftKnee
		{
			OFFSET 0.000000 -0.402270 0.000000 
			CHANNELS 1 Zrotation
			JOINT LeftAnkle
			{
				OFFSET 0.000000 -0.404085 0.000000 
				CHANNELS 3 Zrotation Xrotation Yrotation
				End Site
				{
					OFFSET 0.204105 -0.089430 -0.008415 
				}
			}
		}
	}
}
MOTION
Frames: 25
Frame Time: 0.02
0.00015 -6e-05 -0.00014 -180.33984 -34.41936 -2.54681 44.65118 2.64613 -4.73587 -8.41464 -0.98457 -0.14128 -28.53708 -6.71872 -12.301 43.77212 136.9101 15.37127 9.87263 -32.25668 10.67115 7.53238 48.18254 -117.78757 19.86251 -2.7101 36.92531 -1.09464 -6.1138 -21.24826 -10.25271 -5.61376 -3.8525 40.20056 9.7095 1.00074 -27.17675 -10.44801 5.34833 3.74923
-0.00023 -0.00013 0.00015 -180.40712 -34.4187 -2.55405 44.68421 2.65051 -4.753 -8.40872 -0.98299 -0.14145 -28.57987 -7.08067 -11.38088 43.75182 132.12609 14.38408 8.85067 -32.25225 10.66164 7.53782 48.17187 -117.7929 19.85882 -2.71808 36.90502 -1.14841 -6.30622 -21.25155 -10.21994 -5.59901 -3.84157 40.16137 9.77841 1.3478 -27.19483 -10.40436 5.33421 3.73571
-0.0006 -0.00019 0.00044 -180.47416 -34.41774 -2.56125 44.71683 2.65487 -4.77015 -8.40279 -0.98141 -0.14165 -28.62252 -7.44098 -10.46477 43.73158 127.36305 13.4012 7.83315 -32.24785 10.65257 7.5423 48.16125 -117.79307 19.8538 -2.72526 36.88439 -1.20206 -6.4982 -21.25476 -10.18726 -5.58429 -3.83066 40.12194 9.84698 1.69341 -27.21279 -10.36089 5.32017 3.72225
-0.00097 -0.00025 0.00073 -180.54122 -34.41703 -2.56847 44.74969 2.65924 -4.78724 -8.39689 -0.97984 -0.14182 -28.66517 -7.80171 -9.54772 43.71133 122.59501 12.41729 6.8146 -32.24344 10.64316 7.54754 48.15061 -117.79739 19.84986 -2.73307 36.86409 -1.25568 -6.69005 -21.25803 -10.15459 -5.56959 -3.81976 40.0828 9.91566 2.03933 -27.2308 -10.31738 5.3061 3.70878
-0.00135 -0.00031 0.00102 -180.60852 -34.41676 -2.57571 44.78312 2.66364 -4.80427 -8.39101 -0.97825 -0.14195 -28.70798 -8.16431 -8.62611 43.69103 117.80307 11.42848 5.791 -32.23897 10.6331 7.55419 48.1399 -117.80926 19.84789 -2.74204 36.8443 -1.3094 -6.88227 -21.26142 -10.12184 -5.55486 -3.80884 40.0441 9.98471 2.38686 -27.24897 -10.27366 5.29195 3.69524
-0.00172 -0.00037 0.00131 -180.67504 -34.41436 -2.58285 44.81407 2.66791 -4.82165 -8.38497 -0.97672 -0.1423 -28.75027 -8.51983 -7.72151 43.67092 113.10067 10.45806 4.78624 -32.23475 10.62611 7.55414 48.12947 -117.78515 19.83654 -2.74549 36.82195 -1.36291 -7.07373 -21.26422 -10.0893 -5.54017 -3.79797 40.00315 10.05229 2.72846 -27.26647 -10.23074 5.27812 3.68195
-0.00209 -0.00043 0.0016 -180.74304 -34.41617 -2.5902 44.84987 2.67244 -4.83835 -8.37925 -0.97507 -0.14221 -28.79354 -8.88905 -6.78408 43.65043 108.22524 9.45209 3.74508 -32.23003 10.61306 7.56733 48.1185 -117.83216 19.84372 -2.75985 36.80467 -1.41678 -7.26653 -21.26821 -10.05637 -5.52542 -3.787 39.96666 10.12272 3.0815 -27.28528 -10.18626 5.26367 3.66818
-0.00246 -0.00049 0.00189 -180.8097 -34.41424 -2.59735 44.88136 2.67673 -4.85563 -8.37326 -0.97353 -0.14251 -28.83596 -9.24593 -5.87623 43.6303 103.50578 8.47817 2.73674 -32.22575 10.6054 7.56875 48.10802 -117.81597 19.83444 -2.76451 36.7829 -1.47032 -7.45805 -21.27113 -10.0238 -5.51072 -3.77612 39.92623 10.19058 3.42421 -27.30292 -10.14319 5.24977 3.65484
-0.00283 -0.00055 0.00218 -180.87464 -34.40711 -2.60425 44.90691 2.6807 -4.8738 -8.36682 -0.97211 -0.14336 -28.87714 -9.5866 -5.0071 43.61059 98.9904 7.54617 1.77129 -32.2221 10.60519 7.55389 48.09817 -117.71213 19.8023 -2.75574 36.75484 -1.52347 -7.6483 -21.27258 -9.99167 -5.49608 -3.76535 39.88023 10.2551 3.75351 -27.31899 -10.10194 5.23661 3.64209
-0.00323 -0.00062 0.00247 -180.94922 -34.42801 -2.61257 44.9646 2.68645 -4.88738 -8.36263 -0.96995 -0.14125 -28.92487 -10.01716 -3.92287 43.58838 93.34115 6.38121 0.56741 -32.21513 10.56469 7.62699 48.0848 -118.08124 19.89342 -2.81951 36.76055 -1.57892 -7.84675 -21.282 -9.95699 -5.48109 -3.75396 39.86402 10.33825 4.15758 -27.34364 -10.05054 5.21941 3.62611
-0.00356 -0.00066 0.00275 -181.00364 -34.39102 -2.61791 44.95582 2.6885 -4.91031 -8.3539 -0.9694 -0.14526 -28.95911 -10.26026 -3.28749 43.57151 90.05805 5.70242 -0.13882 -32.21494 10.60751 7.51827 48.07875 -117.47309 19.72992 -2.73335 36.6966 -1.62946 -8.02729 -21.27493 -9.92773 -5.46687 -3.74389 39.78642 10.38246 4.40544 -27.35049 -10.02034 5.21062 3.61687
-0.00369 -0.00059 0.00301 -181.00073 -34.18345 -2.61477 44.75191 2.67985 -4.962 -8.33102 -0.97299 -0.1673 -28.95319 -9.96611 -3.93641 43.56901 93.54273 6.41379 0.57751 -32.23544 10.89525 6.87423 48.0938 -113.985 18.81549 -2.20574 36.42685 -1.66693 -8.16339 -21.21964 -9.9131 -5.4544 -3.73723 39.52687 10.31593 4.20797 -27.30567 -10.05074 5.22591 3.62689
-0.00375 -0.00049 0.00326 -180.97797 -33.92008 -2.60868 44.48378 2.66759 -5.02249 -8.30392 -0.97824 -0.19526 -28.93428 -9.48821 -5.02576 43.57191 99.34923 7.60226 1.78233 -32.26239 11.26366 6.05429 48.11598 -109.55176 17.65491 -1.53306 36.09007 -1.69941 -8.28069 -21.14839 -9.90394 -5.44277 -3.73191 39.20837 10.21108 3.8569 -27.24354 -10.10198 5.24945 3.64354
-0.00385 -0.00041 0.00351 -180.96558 -33.6897 -2.6041 44.25316 2.65734 -5.07693 -8.27986 -0.98294 -0.2197 -28.92339 -9.10899 -5.8799 43.57258 103.91786 8.53664 2.72726 -32.28499 11.58452 5.33865 48.13424 -105.68113 16.64126 -0.94648 35.7933 -1.73387 -8.40348 -21.08636 -9.89246 -5.431 -3.7261 38.92541 10.12628 3.58679 -27.19112 -10.14214 5.26858 3.65667
-0.00394 -0.00031 0.00376 -180.94736 -33.42633 -2.59877 43.98659 2.64551 -5.14009 -8.25104 -0.98682 -0.24766 -28.90363 -8.66427 -6.88516 43.57246 109.27569 9.63212 3.83588 -32.31349 11.95144 4.52002 48.15547 -101.24897 15.47969 -0.2748 35.45527 -1.76947 -8.53891 -21.01582 -9.88036 -5.41825 -3.71984 38.60459 10.0301 3.26855 -27.13074 -10.18923 5.29058 3.67197
-0.00403 -0.00023 0.00402 -180.93669 -33.21927 -2.59434 43.7805 2.63616 -5.18713 -8.23114 -0.99274 -0.2697 -28.89914 -8.31375 -7.67727 43.57509 113.5235 10.50161 4.71593 -32.33136 12.24162 3.87393 48.17207 -97.75957 14.5671 0.25445 35.18831 -1.80161 -8.64383 -20.95943 -9.8708 -5.4077 -3.71481 38.34963 9.94875 3.01507 -27.08301 -10.22674 5.30849 3.6843
-0.00417 -0.00022 0.00431 -180.95073 -33.17401 -2.59288 43.74964 2.63425 -5.18792 -8.23664 -1.00425 -0.27363 -28.94098 -8.25702 -7.79636 43.58553 114.27787 10.6601 4.87413 -32.31698 12.29858 3.75146 48.17523 -97.1389 14.41172 0.3498 35.12482 -1.82443 -8.66693 -20.94422 -9.86732 -5.40327 -3.71303 38.28214 9.91601 2.97052 -27.07292 -10.23343 5.31346 3.6871
-0.00433 -0.00022 0.00462 -180.97313 -33.18831 -2.59246 43.7828 2.63502 -5.17216 -8.25126 -1.01767 -0.27146 -28.99842 -8.30316 -7.68219 43.59832 113.81351 10.5701 4.78102 -32.29188 12.27549 3.8086 48.17333 -97.49751 14.51481 0.29713 35.13636 -1.8441 -8.66045 -20.94403 -9.86615 -5.40099 -3.71242 38.28412 9.89982 2.9978 -27.07634 -10.22964 5.31393 3.68663
-0.00447 -0.00021 0.00492 -180.9925 -33.18076 -2.59173 43.79222 2.6348 -5.16362 -8.2619 -1.02997 -0.27226 -29.04812 -8.31018 -7.65819 43.60896 113.80777 10.57269 4.7825 -32.27256 12.29039 3.78008 48.17298 -97.38064 14.49207 0.3163 35.12028 -1.86586 -8.66889 -20.93832 -9.86365 -5.39756 -3.71117 38.26071 9.87719 2.99725 -27.0747 -10.23016 5.3162 3.68748
-0.00462 -0.0002 0.00521 -181.00839 -33.15102 -2.59027 43.7788 2.63353 -5.1564 -8.27184 -1.04338 -0.27236 -29.10026 -8.28031 -7.71258 43.62411 114.26299 10.67308 4.87927 -32.24973 12.30247 3.75995 48.17585 -97.343 14.49161 0.32369 35.07674 -1.88473 -8.67022 -20.92702 -9.86248 -5.39485 -3.71042 38.21119 9.84874 2.97136 -27.06831 -10.23328 5.31984 3.68927
-0.00477 -0.0002 0.00552 -181.03319 -33.18011 -2.59054 43.82649 2.63507 -5.14268 -8.28525 -1.05489 -0.27247 -29.151 -8.35193 -7.54742 43.63065 113.4663 10.51049 4.71727 -32.23145 12.29887 3.77043 48.17095 -97.40561 14.5149 0.31552 35.10629 -1.90886 -8.67987 -20.93054 -9.85909 -5.39117 -3.7089 38.23076 9.83675 3.01688 -27.07476 -10.22826 5.3194 3.68823
-0.00494 -0.0002 0.0059 -181.08576 -33.37729 -2.59618 44.04941 2.64437 -5.11254 -8.3078 -1.06083 -0.27333 -29.19579 -8.69792 -6.79007 43.61003 109.26389 9.62988 3.85129 -32.22944 12.28448 3.79471 48.14395 -97.33003 14.49278 0.32671 35.34418 -1.94878 -8.71731 -20.97656 -9.84842 -5.38417 -3.70486 38.44689 9.86706 3.24612 -27.11767 -10.20314 5.30911 3.68023
-0.0051 -0.00022 0.0063 -181.14619 -33.62839 -2.60341 44.32813 2.65632 -5.07678 -8.33323 -1.06473 -0.2745 -29.23833 -9.13952 -5.82633 43.58107 103.88133 8.50126 2.74128 -32.23217 12.25459 3.84882 48.10961 -97.35477 14.49465 0.32238 35.6491 -1.99401 -8.76463 -21.03616 -9.83554 -5.37613 -3.7 38.72656 9.91333 3.54442 -27.1724 -10.17016 5.29481 3.66947
-0.00525 -0.00022 0.00669 -181.19965 -33.84146 -2.60937 44.56673 2.66661 -5.04528 -8.35614 -1.06945 -0.27603 -29.28089 -9.52601 -4.98219 43.55782 99.18512 7.51749 1.77305 -32.23194 12.22247 3.90859 48.07988 -97.45891 14.5196 0.30647 35.90693 -2.03652 -8.80923 -21.08607 -9.82406 -5.36862 -3.69557 38.96208 9.95203 3.80964 -27.21891 -10.14076 5.28207 3.65987
-0.00545 -0.00024 0.00708 -181.26751 -34.11253 -2.61763 44.86857 2.67885 -5.00629 -8.38438 -1.07475 -0.27532 -29.32843 -9.96643 -4.01843 43.52684 93.80106 6.38705 0.66324 -32.23462 12.22531 3.89617 48.04469 -97.08661 14.41477 0.36149 36.23605 -2.08029 -8.84564 -21.151 -9.811 -5.36091 -3.69094 39.26302 9.99295 4.08585 -27.27762 -10.11083 5.27018 3.65049
